<svg width="156" height="219" xmlns="http://www.w3.org/2000/svg" xmlns:xlink="http://www.w3.org/1999/xlink"
     overflow="hidden">
    <defs>
        <clipPath id="clip0">
            <rect x="671" y="33" width="156" height="219"/>
        </clipPath>
    </defs>
    <g clip-path="url(#clip0)" transform="translate(-671 -33)">
        <path d="M825.5 35.5 825.5 143C825.5 202.371 791.474 250.5 749.5 250.5 707.526 250.5 673.5 202.371 673.5 143L673.5 35.5Z"
              stroke="#000000" stroke-width="3" stroke-miterlimit="8" fill="#FFC860" fill-rule="evenodd"/>
        <rect x="674.5" y="36.5001" width="150" height="99" stroke="#000000" stroke-width="3" stroke-miterlimit="8"
              fill="#FFFFFF"/>
        <path d="M700.5 97.5001C700.5 83.6929 711.917 72.5001 726 72.5001 740.083 72.5001 751.5 83.6929 751.5 97.5001 744.727 83.6929 727.819 77.8834 713.736 84.524 707.95 87.2521 703.283 91.8279 700.5 97.5001Z"
              stroke="#A5A5A5" stroke-width="1.33333" stroke-miterlimit="8" fill="#A5A5A5" fill-rule="evenodd"/>
        <path d="M748.5 97.5001C748.5 83.6929 759.917 72.5001 774 72.5001 788.083 72.5001 799.5 83.6929 799.5 97.5001 793.654 83.6929 777.498 77.1462 763.415 82.8776 756.665 85.6245 751.302 90.8828 748.5 97.5001Z"
              stroke="#A5A5A5" stroke-width="1.33333" stroke-miterlimit="8" fill="#A5A5A5" fill-rule="evenodd"/>
        <rect x="747.5" y="95.5001" width="18" height="13" stroke="#FFFFFF" stroke-width="1.33333" stroke-miterlimit="8"
              fill="#FFFFFF"/>
    </g>
</svg>