<svg width="156" height="219" xmlns="http://www.w3.org/2000/svg" xmlns:xlink="http://www.w3.org/1999/xlink" overflow="hidden"><defs><clipPath id="clip0"><rect x="1022" y="324" width="156" height="219"/></clipPath></defs><g clip-path="url(#clip0)" transform="translate(-1022 -324)"><path d="M0 0 107 0C166.094-1.93516e-14 214 34.0264 214 76 214 117.974 166.094 152 107 152L0 152Z" stroke="#000000" stroke-width="3" stroke-miterlimit="8" fill="#43C16A" fill-rule="evenodd" transform="matrix(1.83697e-16 1 1 -1.83697e-16 1024.5 326.5)"/><path d="M0 0 149 0.321884 10.7124 159 7.79086 150.953 5.19384 141.941 2.59692 131.32 1.29846 118.445 0.324536 104.605C0.432714 70.2733 0.540998 35.9413 0 0Z" stroke="#000000" stroke-width="1.33333" stroke-miterlimit="8" fill="#0D0D0D" fill-rule="evenodd" transform="matrix(-1 0 0 1 1175.5 326.5)"/><path d="M1070.16 465.01C1054.81 448.381 1055.71 422.565 1072.19 407.347 1085.25 395.283 1095.4 380.073 1102.65 361.716 1108.59 380.658 1117.65 396.72 1129.83 409.903 1145.19 426.531 1144.28 452.347 1127.81 467.565 1111.33 482.782 1085.52 481.638 1070.16 465.01Z" stroke="#000000" stroke-width="2" stroke-miterlimit="8" fill="#C00000" fill-rule="evenodd"/></g></svg>