<svg width="159" height="219" xmlns="http://www.w3.org/2000/svg" xmlns:xlink="http://www.w3.org/1999/xlink" overflow="hidden"><defs><clipPath id="clip0"><rect x="1932" y="859" width="155" height="214"/></clipPath><clipPath id="clip1"><path d="M2015.4 880.74 2073.98 910.861 2015.39 1024.79 1956.82 994.671Z" fill-rule="evenodd" clip-rule="evenodd"/></clipPath><clipPath id="clip2"><path d="M2015.4 880.74 2073.98 910.861 2015.39 1024.79 1956.82 994.671Z" fill-rule="evenodd" clip-rule="evenodd"/></clipPath><clipPath id="clip3"><path d="M2015.4 880.74 2073.98 910.861 2015.39 1024.79 1956.82 994.671Z" fill-rule="evenodd" clip-rule="evenodd"/></clipPath></defs><g clip-path="url(#clip0)" transform="translate(-1932 -859)"><path d="M385.686 30.6409 385.686 134.723C385.686 192.205 352.806 238.804 312.245 238.804 271.685 238.804 238.804 192.205 238.804 134.723L238.804 30.6409Z" stroke="#000000" stroke-width="2.91818" stroke-miterlimit="8" fill="#3C1C06" fill-rule="evenodd" transform="matrix(1.02145 0 0 1 1690.56 831.764)"/><path d="M239.291 30.1545 385.2 30.1545 385.2 122.564 239.291 122.564Z" fill="#003E1C" transform="matrix(1.02145 0 0 1 1690.56 831.764)"/><g clip-path="url(#clip1)"><g clip-path="url(#clip2)"><g clip-path="url(#clip3)"><path d="M35.8799 127.765C35.8499 127.715 35.7999 127.465 35.7598 127.185 35.6298 126.235 34.8896 122.574 34.4995 120.893 33.6193 117.152 32.3789 112.961 31.0786 109.33 28.938 103.398 27.3875 100.388 22.5062 92.6755 16.3745 82.9929 15.2942 80.6222 14.9041 76.0709 14.8441 75.3608 14.7741 74.4805 14.7441 74.1204L14.684 73.4702 14.394 73.8003C14.2339 73.9804 14.1039 74.2104 14.1039 74.3205 14.1039 74.6806 13.9438 74.5305 13.7038 73.9504 13.5837 73.6303 12.7035 71.8398 11.7532 69.9693 9.52262 65.5681 8.82243 63.7576 8.64238 61.907 8.58236 61.2269 8.57236 61.2169 8.31229 61.2869 7.9822 61.3669 7.53207 61.587 7.45205 61.717 7.35202 61.877 7.20198 61.837 7.20198 61.647 7.20198 61.5469 6.81188 60.0265 6.35175 58.266 5.39148 54.6851 4.86134 52.2244 4.69129 50.5239 4.57126 49.3236 4.62127 46.8529 4.78132 46.1927 4.84133 45.9927 4.86134 45.8026 4.84133 45.7826 4.81133 45.7626 4.59126 45.7826 4.33119 45.8226 4.08112 45.8726 3.85106 45.8926 3.82105 45.8626 3.80105 45.8426 3.97109 45.1824 4.20116 44.3922 4.79132 42.4117 4.89135 41.9616 4.90135 41.2113 4.90135 40.2311 4.63128 39.831 3.72102 39.4509 3.71102 39.4409 3.81105 39.0408 3.95109 38.5506 4.56126 36.44 4.83133 34.6495 4.60127 34.2194 4.51124 34.0394 4.42122 33.9994 4.19115 34.0294 3.93108 34.0694 3.90107 34.0494 3.96109 33.8693 5.17142 29.5081 7.71212 25.537 11.4031 22.2561 14.2739 19.7054 16.3845 18.255 21.4559 15.3342 25.8471 12.8035 26.9374 12.0733 28.2578 10.763 30.1183 8.91245 30.9685 7.03194 32.1689 2.04056 32.709-0.210058 32.829-0.300083 32.8891 1.55043 32.9191 2.60072 32.8991 2.73075 32.4089 4.65128 31.6187 7.68212 31.6787 8.55235 32.709 9.73268 33.5092 10.6429 35.2497 11.6332 38.1405 12.8435 40.4011 13.7938 40.7312 13.9438 41.7915 14.564 45.7726 16.8947 48.3533 19.3753 52.3644 24.7568 53.9549 26.8874 54.0949 27.1075 54.2549 27.7576 55.1752 31.4787 57.5058 39.3408 58.3661 41.5915 58.5961 42.2016 58.7762 42.7118 58.7462 42.7118 58.7262 42.7118 58.4761 42.5917 58.196 42.4517L57.6859 42.1916 57.7459 42.4317C57.7659 42.5517 57.926 43.2719 58.096 44.0121 58.4861 45.7126 58.6361 46.8529 58.5061 47.193 58.4361 47.383 58.3761 47.4131 58.2961 47.333 58.046 47.083 58.026 47.233 58.236 47.7431 58.5761 48.5934 59.0163 49.9838 59.3163 51.2141 60.8368 57.2858 60.5567 64.0676 58.4561 72.57 57.5058 76.381 56.2155 80.3421 53.3847 88.1243 52.3144 91.0651 51.3842 93.6458 51.3141 93.8559 51.1841 94.276 51.1241 94.266 50.954 93.7958L50.834 93.4757 50.724 93.7558C50.4139 94.546 48.5034 97.5469 47.7932 98.3571 47.6131 98.5671 47.383 98.7472 47.273 98.7672 47.133 98.7872 47.0029 99.0573 46.7229 99.9875 45.6626 103.388 44.2722 106.029 40.8412 111.111 38.7607 114.201 38.0705 115.422 37.5703 116.932 37.1302 118.283 36.9502 119.373 36.7601 122.034 36.5801 124.414 36.5101 125.064 36.2 126.715 35.9899 127.815 35.9599 127.905 35.8799 127.765Z" stroke="#000000" stroke-width="1.57236" fill="#70AD47" transform="matrix(0.914987 0.470501 0.457299 -0.889313 1956.83 994.637)"/></g></g></g><path d="M1989 996C1993.04 983.952 1997.08 971.905 2003.5 961.67 2009.92 951.436 2020.92 943.538 2027.5 934.593 2034.08 925.648 2038.54 916.824 2043 908" stroke="#003E1C" stroke-width="2.29167" stroke-miterlimit="6" fill="none" fill-rule="evenodd"/></g></svg>