<svg width="156" height="219" xmlns="http://www.w3.org/2000/svg" xmlns:xlink="http://www.w3.org/1999/xlink"
     overflow="hidden">
    <defs>
        <clipPath id="clip0">
            <rect x="544" y="307" width="156" height="219"/>
        </clipPath>
    </defs>
    <g clip-path="url(#clip0)" transform="translate(-544 -307)">
        <path d="M698.5 309.5 698.5 417C698.5 476.371 664.474 524.5 622.5 524.5 580.526 524.5 546.5 476.371 546.5 417L546.5 309.5Z"
              stroke="#000000" stroke-width="3" stroke-miterlimit="8" fill="#FFFFE0" fill-rule="evenodd"/>
        <rect x="547.5" y="310.5" width="150" height="75" stroke="#000000" stroke-width="3" stroke-miterlimit="8"
              fill="#FFA000"/>
        <path d="M598.072 418.744C593.82 423.521 594.23 430.825 598.986 435.059 603.743 439.293 611.046 438.854 615.297 434.077 619.549 429.301 619.14 421.997 614.383 417.763 609.626 413.528 602.324 413.968 598.072 418.744ZM590.666 412.152C599.17 402.6 613.235 401.239 622.081 409.114 628.716 415.02 630.532 424.444 627.437 432.816L626.38 435.02 639.66 446.841 646.993 438.604 651.321 442.457 643.989 450.695 646.53 452.957 651.438 447.443 655.766 451.297 650.859 456.81 653.4 459.072 661.152 450.363 665.481 454.216 651.251 470.202 651.251 470.202 648.867 472.881 617.518 444.976 615.451 446.282C607.493 450.325 597.923 449.614 591.288 443.708 582.441 435.833 582.163 421.705 590.666 412.152Z"
              stroke="#000000" stroke-width="1.33333" stroke-miterlimit="8" fill="#A5A5A5" fill-rule="evenodd"/>
    </g>
</svg>