<svg width="156" height="219" xmlns="http://www.w3.org/2000/svg" xmlns:xlink="http://www.w3.org/1999/xlink" overflow="hidden"><defs><clipPath id="clip0"><rect x="42" y="28" width="156" height="219"/></clipPath><clipPath id="clip1"><rect x="74" y="110" width="96" height="96"/></clipPath><clipPath id="clip2"><rect x="74" y="110" width="96" height="96"/></clipPath><clipPath id="clip3"><rect x="74" y="110" width="96" height="96"/></clipPath></defs><g clip-path="url(#clip0)" transform="translate(-42 -28)"><path d="M195.5 31.5 195.5 138.5C195.5 197.594 161.698 245.5 120 245.5 78.3026 245.5 44.5001 197.594 44.5001 138.5L44.5001 31.5Z" stroke="#000000" stroke-width="3" stroke-miterlimit="8" fill="#C00000" fill-rule="evenodd"/><rect x="45.5001" y="31.5001" width="150" height="71" stroke="#000000" stroke-width="3" stroke-miterlimit="8" fill="#FFFFFF"/><g clip-path="url(#clip1)"><g clip-path="url(#clip2)"><g clip-path="url(#clip3)"><path d="M147.9 159.3C149.7 166.6 142.2 173.8 134.8 170.8 128.6 168.6 126.2 161.4 130.5 155.2 140.2 142.3 133.1 122 117 115 124.3 128.8 113.1 141.5 106.7 146.8 100.3 152.1 96 157.6 94.7 160.8 88.2 176.6 97.9 191.7 104.5 195.3 101.5 188.5 98.7 175.5 110.5 163.3 110.5 163.3 107.1 176.3 114.5 185.3 121.9 194.3 121.8 201 121.8 201 133.3 201 144.2 194.1 148.8 182.8 152.3 176.1 152.6 165.5 147.9 159.3" fill="#FFFFFF"/></g></g></g></g></svg>