<svg width="156" height="219" xmlns="http://www.w3.org/2000/svg" xmlns:xlink="http://www.w3.org/1999/xlink" overflow="hidden"><defs><clipPath id="clip0"><rect x="444" y="32" width="156" height="219"/></clipPath></defs><g clip-path="url(#clip0)" transform="translate(-444 -32)"><path d="M597.5 34.5001 597.5 142C597.5 201.371 563.698 249.5 522 249.5 480.303 249.5 446.5 201.371 446.5 142L446.5 34.5001Z" stroke="#000000" stroke-width="3" stroke-miterlimit="8" fill="#FFFF43" fill-rule="evenodd"/><rect x="447.5" y="35.5001" width="150" height="67" stroke="#000000" stroke-width="3" stroke-miterlimit="8" fill="#FFFFFF"/><path d="M497.419 182.668 539.774 178.476 541.648 197.418 499.294 201.61Z" fill="#FFFFFF" fill-rule="evenodd"/><rect x="542" y="136" width="7" height="63" fill="#D0CECE"/><path d="M495.873 183.314 495.873 183.449 496.022 183.314ZM540.494 178.93 501.328 183.069 501.083 183.314 499.887 183.314 498.546 187.225C497.968 190.207 497.991 193.312 498.598 196.292L499.766 200.066 542.37 196.601 539.841 193.701C539.121 192.542 538.548 191.212 538.18 189.758 537.444 186.849 537.665 183.991 538.616 181.721ZM544.973 136.315 544.973 174.383 545.029 174.428 545.365 177.611C545.412 178.05 545.093 178.444 544.654 178.49L543.099 178.655 542.154 182.659C542.033 184.597 542.22 186.62 542.723 188.608 543.226 190.597 544.024 192.465 545.052 194.112L546.937 196.229 547.57 196.178 547.57 138.071 547.548 138.07C546.767 137.817 546.005 137.358 545.304 136.729ZM540.173 123.514 501.883 127.56 501.883 178.184 540.173 174.137ZM543.753 118.309C544.192 118.262 544.586 118.581 544.633 119.02L544.786 120.474 544.973 120.66 544.973 121.851 545.671 121.433 544.973 122.688 544.973 133.487 546.11 135.754 547.57 136.684 547.57 136.283C547.57 136.109 547.711 135.968 547.885 135.968L549.145 135.968C549.319 135.968 549.46 136.109 549.46 136.283L549.46 137.887 549.908 138.173 549.908 138.173 549.46 138.153 549.46 196.65 549.707 196.86 549.983 200.262C550.021 200.731 549.672 201.143 549.202 201.181L499.905 205.191C499.435 205.229 499.024 204.88 498.985 204.41L498.96 204.1 498.234 203.982C494.556 202.479 491.771 198.548 491.431 193.76 491.317 192.164 491.486 190.623 491.889 189.205L492.093 188.785 492.093 134.246 492.526 133.814 492.25 131.443C492.315 129.392 493.01 127.515 494.38 126.095L497.083 124.479 497.083 124.118C497.083 123.676 497.441 123.318 497.883 123.318L499.049 123.318 499.301 123.006Z" fill-rule="evenodd"/><path d="M596.5 88.6701 571.334 101.5 545.5 101.5 596.5 75.5001Z" stroke="#000000" stroke-width="1.33333" stroke-miterlimit="8" fill="#FFFF43" fill-rule="evenodd"/><path d="M596.5 59.1682 512.566 101.5 481.5 101.5 596.5 43.5001Z" stroke="#000000" stroke-width="1.33333" stroke-miterlimit="8" fill="#FFFF43" fill-rule="evenodd"/><path d="M448.5 86.916 550.883 36.5001 580.5 36.5001 448.5 101.5Z" stroke="#000000" stroke-width="1.33333" stroke-miterlimit="8" fill="#FFFF43" fill-rule="evenodd"/><path d="M447.5 59.21 491.127 36.5001 520.5 36.5001 447.5 74.5001Z" stroke="#000000" stroke-width="1.33333" stroke-miterlimit="8" fill="#FFFF43" fill-rule="evenodd"/><path d="M447.5 36.5001 447.5 36.5001 465.5 36.5001 447.5 44.5001Z" stroke="#000000" stroke-width="1.33333" stroke-miterlimit="8" fill="#FFFF43" fill-rule="evenodd"/></g></svg>